<svg xmlns="http://www.w3.org/2000/svg" viewBox="0 0 1600 750" style="background-color: #FAFAF9; font-family: -apple-system, BlinkMacSystemFont, 'Segoe UI', Roboto, Helvetica, Arial, sans-serif;">
  <defs>
    <filter id="shadow" x="-20%" y="-20%" width="140%" height="140%">
      <feDropShadow dx="0" dy="4" stdDeviation="4" flood-color="#0F172A" flood-opacity="0.1"/>
    </filter>
  </defs>

  <text x="800" y="60" font-size="36" font-weight="800" fill="#0F172A" text-anchor="middle">Domain Name Space</text>
  <text x="800" y="95" font-size="18" fill="#475569" text-anchor="middle">Evolution from a Flat Name Space to a Scalable Hierarchical Name Space</text>

  <g font-size="16" font-weight="600" fill="#64748B">
    <text x="1350" y="156">← Root Level (.)</text>
    <text x="1350" y="286">← Top-Level Domains (TLDs)</text>
    <text x="1350" y="386">← Second-Level Domains (SLDs)</text>
    <text x="1350" y="466">← Subdomains</text>
    <text x="1350" y="626">← Hosts (Leaf Nodes)</text>
  </g>

  <g fill="none" stroke="#CBD5E1" stroke-width="3" stroke-linecap="round" stroke-linejoin="round">
    <path d="M 700 150 L 300 280" />
    <path d="M 700 150 L 450 280" />
    <path d="M 700 150 L 600 280" />
    <path d="M 700 150 L 900 280" />
    <path d="M 700 150 L 1020 280" />
    <path d="M 700 150 L 1240 280" />

    <path d="M 300 280 L 250 380" />
    <path d="M 300 280 L 300 380" />
    <path d="M 300 280 L 350 380" />
    <path d="M 300 380 L 300 460" />

    <path d="M 450 280 L 450 380" />
    <path d="M 450 380 L 410 460" />
    <path d="M 450 380 L 490 460" />
    <path d="M 410 460 L 410 540" />
    <path d="M 410 540 L 360 620" />
    <path d="M 410 540 L 410 620" />
    <path d="M 410 540 L 460 620" />

    <path d="M 600 280 L 550 380" />
    <path d="M 600 280 L 600 380" />
    <path d="M 600 280 L 650 380" />
    <path d="M 600 380 L 600 460" />
    <path d="M 600 460 L 600 540" />
    <path d="M 650 380 L 680 460" />
    <path d="M 680 460 L 680 540" />
    <path d="M 680 540 L 640 620" />
    <path d="M 680 540 L 720 620" />

    <path d="M 900 280 L 850 380" />
    <path d="M 900 280 L 900 380" />
    <path d="M 900 280 L 950 380" />
    <path d="M 900 380 L 870 460" />
    <path d="M 900 380 L 930 460" />

    <path d="M 1020 280 L 1020 380" />

    <path d="M 1240 280 L 1210 380" />
    <path d="M 1240 280 L 1270 380" />
    <path d="M 1270 380 L 1240 460" />
    <path d="M 1270 380 L 1300 460" />
  </g>

  <g fill="#F1F5F9" stroke="#94A3B8" stroke-width="3" filter="url(#shadow)">
    <circle cx="300" cy="380" r="12" />
    <circle cx="450" cy="380" r="12" />
    <circle cx="410" cy="460" r="12" />
    <circle cx="410" cy="540" r="12" />
    <circle cx="600" cy="380" r="12" />
    <circle cx="650" cy="380" r="12" />
    <circle cx="600" cy="460" r="12" />
    <circle cx="680" cy="460" r="12" />
    <circle cx="680" cy="540" r="12" />
    <circle cx="900" cy="380" r="12" />
    <circle cx="1270" cy="380" r="12" />
  </g>

  <g fill="#D1FAE5" stroke="#10B981" stroke-width="3" filter="url(#shadow)">
    <circle cx="250" cy="380" r="12" />
    <circle cx="350" cy="380" r="12" />
    <circle cx="300" cy="460" r="12" />
    <circle cx="490" cy="460" r="12" />
    <circle cx="360" cy="620" r="12" />
    <circle cx="410" cy="620" r="12" />
    <circle cx="460" cy="620" r="12" />
    <circle cx="550" cy="380" r="12" />
    <circle cx="600" cy="540" r="12" />
    <circle cx="640" cy="620" r="12" />
    <circle cx="720" cy="620" r="12" />
    <circle cx="850" cy="380" r="12" />
    <circle cx="950" cy="380" r="12" />
    <circle cx="870" cy="460" r="12" />
    <circle cx="930" cy="460" r="12" />
    <circle cx="1020" cy="380" r="12" />
    <circle cx="1210" cy="380" r="12" />
    <circle cx="1240" cy="460" r="12" />
    <circle cx="1300" cy="460" r="12" />
  </g>
  <g fill="#059669">
    <circle cx="250" cy="380" r="4" /> <circle cx="350" cy="380" r="4" /> <circle cx="300" cy="460" r="4" />
    <circle cx="490" cy="460" r="4" /> <circle cx="360" cy="620" r="4" /> <circle cx="410" cy="620" r="4" />
    <circle cx="460" cy="620" r="4" /> <circle cx="550" cy="380" r="4" /> <circle cx="600" cy="540" r="4" />
    <circle cx="640" cy="620" r="4" /> <circle cx="720" cy="620" r="4" /> <circle cx="850" cy="380" r="4" />
    <circle cx="950" cy="380" r="4" /> <circle cx="870" cy="460" r="4" /> <circle cx="930" cy="460" r="4" />
    <circle cx="1020" cy="380" r="4" /> <circle cx="1210" cy="380" r="4" /> <circle cx="1240" cy="460" r="4" />
    <circle cx="1300" cy="460" r="4" />
  </g>

  <g fill="#EFF6FF" stroke="#3B82F6" stroke-width="4" filter="url(#shadow)">
    <circle cx="300" cy="280" r="16" />
    <circle cx="450" cy="280" r="16" />
    <circle cx="600" cy="280" r="16" />
    <circle cx="900" cy="280" r="16" />
    <circle cx="1020" cy="280" r="16" />
    <circle cx="1240" cy="280" r="16" />
  </g>
  
  <g font-size="20" font-weight="700" fill="#1E3A8A" text-anchor="middle">
    <text x="300" y="245">arpa</text>
    <text x="450" y="245">com</text>
    <text x="600" y="245">edu</text>
    <text x="900" y="245">org</text>
    <text x="1020" y="245">ad</text>
    <text x="1240" y="245">zw</text>
  </g>

  <g font-size="32" font-weight="800" fill="#94A3B8" text-anchor="middle">
    <text x="750" y="288">...</text>
    <text x="1130" y="288">...</text>
  </g>

  <circle cx="700" cy="150" r="28" fill="#0F172A" stroke="#334155" stroke-width="4" filter="url(#shadow)"/>
  
  <g fill="none" stroke="#FFFFFF" stroke-width="2" stroke-linecap="round">
    <rect x="688" y="137" width="24" height="26" rx="3" />
    <line x1="688" y1="145" x2="712" y2="145" />
    <line x1="688" y1="154" x2="712" y2="154" />
    <circle cx="694" cy="141" r="1" fill="#FFFFFF" stroke="none" />
    <circle cx="694" cy="149" r="1" fill="#FFFFFF" stroke="none" />
    <circle cx="694" cy="158" r="1" fill="#FFFFFF" stroke="none" />
  </g>

</svg>
